<svg width="32" height="32" viewBox="0 0 32 32" fill="none" xmlns="http://www.w3.org/2000/svg">
<path d="M8.1311 26C6.39762 25.8295 5.09902 25.3088 4.22811 24.4379C2.66602 22.8759 2.66602 20.3616 2.66602 15.3333V14.6667C2.66602 9.63835 2.66602 7.1242 4.22811 5.56209C5.79022 4 8.30436 4 13.3327 4H15.3327M8.66602 24C8.39207 25.3359 7.1696 28.222 8.42027 29.1535C9.07402 29.6291 10.1157 29.1211 12.1992 28.1052C13.6613 27.3921 15.1409 26.5745 16.7388 26.2067C17.3235 26.0735 17.9187 26.0167 18.666 26C23.6943 26 26.2085 26 27.7705 24.4379C29.262 22.9464 29.3295 20.5871 29.3326 16" stroke="#EF4444" stroke-width="2" stroke-linecap="round"/>
<path d="M10.666 18.6667H18.666M10.666 12H14.666" stroke="#EF4444" stroke-width="2" stroke-linecap="round"/>
<path d="M20.266 4.26675L27.7327 11.7334M29.3327 8.00008C29.3327 5.05456 26.9448 2.66675 23.9993 2.66675C21.0539 2.66675 18.666 5.05456 18.666 8.00008C18.666 10.9456 21.0539 13.3334 23.9993 13.3334C26.9448 13.3334 29.3327 10.9456 29.3327 8.00008Z" stroke="#EF4444" stroke-width="2" stroke-linecap="round"/>
</svg>
