<svg width="16" height="16" viewBox="0 0 16 16" fill="none" xmlns="http://www.w3.org/2000/svg">
<path d="M1.66602 8.00008C1.66602 5.18026 1.66602 3.77035 2.46466 2.83525C2.57807 2.70247 2.70174 2.5788 2.83452 2.46539C3.76962 1.66675 5.17953 1.66675 7.99935 1.66675C10.8191 1.66675 12.2291 1.66675 13.1641 2.46539C13.2969 2.5788 13.4206 2.70247 13.534 2.83525C14.3327 3.77035 14.3327 5.18026 14.3327 8.00008C14.3327 10.8199 14.3327 12.2298 13.534 13.1649C13.4206 13.2977 13.2969 13.4213 13.1641 13.5347C12.2291 14.3334 10.8191 14.3334 7.99935 14.3334C5.17953 14.3334 3.76962 14.3334 2.83452 13.5347C2.70174 13.4213 2.57807 13.2977 2.46466 13.1649C1.66602 12.2298 1.66602 10.8199 1.66602 8.00008Z" stroke="#EAB308" stroke-linecap="round"/>
<path d="M10 9.66145C9.68107 10.2637 9.1008 10.6666 8.43787 10.6666C7.43133 10.6666 6.61539 9.73798 6.61539 8.59252V7.40732C6.61539 6.26185 7.43133 5.33325 8.43787 5.33325C9.1008 5.33325 9.68107 5.73609 10 6.33841M6 7.99992H8.6154" stroke="#EAB308" stroke-linecap="round"/>
</svg>
