<svg width="16" height="16" viewBox="0 0 16 16" fill="none" xmlns="http://www.w3.org/2000/svg">
<path d="M12.9993 11.6667C12.9993 12.5871 12.2531 13.3333 11.3327 13.3333C10.4122 13.3333 9.66602 12.5871 9.66602 11.6667C9.66602 10.7462 10.4122 10 11.3327 10C12.2531 10 12.9993 10.7462 12.9993 11.6667Z" stroke="#EAB308"/>
<path d="M6.33333 11.6667C6.33333 12.5871 5.58714 13.3333 4.66667 13.3333C3.74619 13.3333 3 12.5871 3 11.6667C3 10.7462 3.74619 10 4.66667 10C5.58714 10 6.33333 10.7462 6.33333 11.6667Z" stroke="#EAB308"/>
<path d="M9.66732 11.6667H6.33398M13.0007 11.6667H13.5095C13.6561 11.6667 13.7294 11.6667 13.791 11.6591C14.2452 11.6025 14.6031 11.2447 14.6597 10.7904C14.6673 10.7288 14.6673 10.6555 14.6673 10.5089V8.66675C14.6673 6.27351 12.7273 4.33341 10.334 4.33341M1.33398 2.66675H8.00065C8.94345 2.66675 9.41485 2.66675 9.70778 2.95964C10.0007 3.25253 10.0007 3.72394 10.0007 4.66675V10.3334M1.33398 8.50008V10.0001C1.33398 10.6231 1.33398 10.9347 1.46796 11.1667C1.55572 11.3187 1.68196 11.445 1.83398 11.5327C2.06604 11.6667 2.37757 11.6667 3.00065 11.6667" stroke="#EAB308" stroke-linecap="round" stroke-linejoin="round"/>
<path d="M1.33398 4.66675H5.33398M1.33398 6.66675H4.00065" stroke="#EAB308" stroke-linecap="round" stroke-linejoin="round"/>
</svg>
