<svg width="16" height="16" viewBox="0 0 16 16" fill="none" xmlns="http://www.w3.org/2000/svg">
<path d="M8.0013 6.0048C7.2649 6.0048 6.66797 6.45251 6.66797 7.00481C6.66797 7.55708 7.2649 8.00481 8.0013 8.00481C8.73764 8.00481 9.33464 8.45255 9.33464 9.00481C9.33464 9.55708 8.73764 10.0048 8.0013 10.0048M8.0013 6.0048C8.58184 6.0048 9.0757 6.28307 9.2587 6.67148M8.0013 6.0048V5.33813M8.0013 10.0048C7.4207 10.0048 6.92684 9.72655 6.74384 9.33815M8.0013 10.0048V10.6715" stroke="#EAB308" stroke-linecap="round"/>
<path d="M8.66602 1.67139C8.66602 1.67139 8.45528 1.67139 7.99935 1.67139C5.01379 1.67139 3.52101 1.67139 2.59351 2.59889C1.66602 3.52638 1.66602 5.01916 1.66602 8.00473C1.66602 10.9903 1.66602 12.4831 2.59351 13.4106C3.52101 14.3381 5.01379 14.3381 7.99935 14.3381C10.9849 14.3381 12.4777 14.3381 13.4052 13.4106C14.3327 12.4831 14.3327 10.9903 14.3327 8.00473C14.3327 7.5488 14.3327 7.33807 14.3327 7.33807" stroke="#EAB308" stroke-linecap="round"/>
<path d="M14.3255 1.66187L11.5417 4.44733M10.9922 2.00971L11.071 4.0707C11.071 4.55646 11.3611 4.85912 11.8894 4.89729L13.9721 4.9952" stroke="#EAB308" stroke-linecap="round"/>
</svg>
