<svg width="16" height="16" viewBox="0 0 16 16" fill="none" xmlns="http://www.w3.org/2000/svg">
<path d="M8.66667 14.6667H6.66667C4.46678 14.6667 3.36683 14.6667 2.68342 13.9833C2 13.2999 2 12.1999 2 10.0001V7.33341C2 6.07633 2 5.44779 2.39053 5.05727C2.78105 4.66675 3.40959 4.66675 4.66667 4.66675H10C11.2571 4.66675 11.8856 4.66675 12.2761 5.05727C12.6667 5.44779 12.6667 6.07633 12.6667 7.33341V9.33341" stroke="#EF4444" stroke-width="1.5" stroke-linecap="round" stroke-linejoin="round"/>
<path d="M10.0001 6.33325C10.0001 3.75593 8.80615 1.33325 7.33341 1.33325C5.86065 1.33325 4.66675 3.75593 4.66675 6.33325" stroke="#EF4444" stroke-width="1.5" stroke-linecap="round" stroke-linejoin="round"/>
<path d="M10.6667 11.3333L14.0001 14.6666M10.6667 14.6666L14.0001 11.3333" stroke="#EF4444" stroke-width="1.5" stroke-linecap="round" stroke-linejoin="round"/>
</svg>
