<svg width="16" height="16" viewBox="0 0 16 16" fill="none" xmlns="http://www.w3.org/2000/svg">
<path d="M11.334 7.203C11.334 6.97253 11.334 6.85733 11.3687 6.75467C11.4695 6.45629 11.7352 6.34051 12.0014 6.21925C12.3007 6.08295 12.4503 6.01479 12.5985 6.0028C12.7669 5.98919 12.9355 6.02545 13.0793 6.10619C13.2701 6.21323 13.4031 6.41662 13.5393 6.58201C14.1682 7.34587 14.4826 7.72787 14.5977 8.14907C14.6905 8.48893 14.6905 8.8444 14.5977 9.18427C14.4299 9.7986 13.8997 10.3136 13.5072 10.7903C13.3065 11.0341 13.2061 11.156 13.0793 11.2271C12.9355 11.3079 12.7669 11.3441 12.5985 11.3305C12.4503 11.3185 12.3007 11.2504 12.0014 11.1141C11.7352 10.9928 11.4695 10.8771 11.3687 10.5787C11.334 10.476 11.334 10.3608 11.334 10.1303V7.203Z" stroke="#EAB308" stroke-linecap="round"/>
<path d="M4.66732 7.20307C4.66732 6.91294 4.65917 6.65214 4.42459 6.44814C4.33927 6.37394 4.22615 6.32241 3.99992 6.21937C3.70066 6.08306 3.55102 6.0149 3.40276 6.00291C2.95792 5.96694 2.7186 6.27054 2.46207 6.58212C1.83315 7.346 1.51869 7.72794 1.40362 8.14914C1.31077 8.48907 1.31077 8.84454 1.40362 9.1844C1.57145 9.79874 2.10166 10.3137 2.49412 10.7904C2.74151 11.0909 2.97783 11.365 3.40276 11.3307C3.55102 11.3187 3.70066 11.2505 3.99992 11.1142C4.22615 11.0111 4.33927 10.9596 4.42459 10.8854C4.65917 10.6814 4.66732 10.4207 4.66732 10.1305V7.20307Z" stroke="#EAB308" stroke-linecap="round"/>
<path d="M3.33398 6C3.33398 3.79086 5.42332 2 8.00065 2C10.578 2 12.6673 3.79086 12.6673 6" stroke="#EAB308" stroke-linecap="round"/>
<path d="M12.666 11.3333V11.8666C12.666 13.0448 11.4721 13.9999 9.99935 13.9999H8.66602" stroke="#EAB308" stroke-linecap="round"/>
</svg>
