<svg width="16" height="16" viewBox="0 0 16 16" fill="none" xmlns="http://www.w3.org/2000/svg">
<g clip-path="url(#clip0_338_34763)">
<path d="M13.334 5.99992C12.8039 3.34295 10.3425 1.33325 7.38685 1.33325C4.04431 1.33325 1.33398 3.90339 1.33398 7.07325C1.33398 8.59632 1.95944 9.98019 2.97968 11.0071C3.20431 11.2333 3.35428 11.5422 3.29376 11.8601C3.19386 12.38 2.96749 12.8649 2.63602 13.2691C3.50814 13.4299 4.41496 13.2851 5.19266 12.8751C5.46758 12.7302 5.60503 12.6577 5.70203 12.643C5.76993 12.6327 5.85838 12.6423 6.00065 12.6667" stroke="#EAB308" stroke-linecap="round" stroke-linejoin="round"/>
<path d="M7.33398 10.8411C7.33398 12.7782 8.97585 14.3489 11.0007 14.3489C11.2387 14.3491 11.4761 14.3271 11.71 14.2833C11.8783 14.2516 11.9625 14.2358 12.0213 14.2448C12.08 14.2537 12.1633 14.2981 12.3299 14.3866C12.8009 14.6371 13.3503 14.7256 13.8786 14.6273C13.6778 14.3804 13.5407 14.0841 13.4801 13.7663C13.4435 13.5721 13.5343 13.3833 13.6704 13.2451C14.2885 12.6175 14.6673 11.7718 14.6673 10.8411C14.6673 8.90392 13.0255 7.33325 11.0007 7.33325C8.97585 7.33325 7.33398 8.90392 7.33398 10.8411Z" stroke="#EAB308" stroke-linecap="round" stroke-linejoin="round"/>
</g>
<defs>
<clipPath id="clip0_338_34763">
<rect width="16" height="16" fill="white"/>
</clipPath>
</defs>
</svg>
