<svg width="16" height="16" viewBox="0 0 16 16" fill="none" xmlns="http://www.w3.org/2000/svg">
<path d="M9.66732 5.99992C9.66732 6.92039 8.92112 7.66659 8.00065 7.66659C7.08018 7.66659 6.33398 6.92039 6.33398 5.99992C6.33398 5.07945 7.08018 4.33325 8.00065 4.33325C8.92112 4.33325 9.66732 5.07945 9.66732 5.99992Z" stroke="#EAB308" stroke-linecap="round"/>
<path d="M12.1475 11.3333C13.0771 12.6589 13.5219 13.3649 13.257 13.9332C13.2304 13.9902 13.1993 14.0452 13.1639 14.0977C12.7809 14.6666 11.791 14.6666 9.81121 14.6666H6.1875C4.20769 14.6666 3.21778 14.6666 2.83475 14.0977C2.79938 14.0452 2.76827 13.9902 2.74171 13.9332C2.47681 13.3649 2.92152 12.6589 3.8512 11.3333" stroke="#EAB308" stroke-linecap="round"/>
<path d="M8.83892 11.6623C8.61405 11.8789 8.31352 11.9999 8.00078 11.9999C7.68798 11.9999 7.38745 11.8789 7.16258 11.6623C5.10352 9.66712 2.34411 7.43825 3.68979 4.20241C4.41738 2.4528 6.16394 1.33325 8.00078 1.33325C9.83758 1.33325 11.5841 2.45281 12.3117 4.20241C13.6557 7.43418 10.9031 9.67399 8.83892 11.6623Z" stroke="#EAB308" stroke-linecap="round"/>
</svg>
