<svg width="16" height="16" viewBox="0 0 16 16" fill="none" xmlns="http://www.w3.org/2000/svg">
<path d="M10.3327 14.3333H6.99935C4.48519 14.3333 3.22812 14.3333 2.44706 13.5522C1.66602 12.7712 1.66602 11.5141 1.66602 8.99992V4.33325H14.3327V8.99992" stroke="#EAB308" stroke-linecap="round" stroke-linejoin="round"/>
<path d="M1.66602 4.33341L2.06602 3.80008C2.85116 2.75323 3.24372 2.2298 3.80678 1.94827C4.36984 1.66675 5.02412 1.66675 6.33268 1.66675H9.66602C10.9745 1.66675 11.6289 1.66675 12.1919 1.94827C12.7549 2.2298 13.1475 2.75323 13.9327 3.80008L14.3327 4.33341" stroke="#EAB308" stroke-linecap="round" stroke-linejoin="round"/>
<path d="M10.6667 8.99927C10.6667 8.99927 9 10.2267 9 10.6659C9 11.1051 10.6667 12.3326 10.6667 12.3326M9.33333 10.6659L12.5001 10.6664C13.5126 10.6666 14.3333 11.4875 14.3333 12.5C14.3333 13.5125 13.5125 14.3334 12.5 14.3334" stroke="#EAB308" stroke-linecap="round" stroke-linejoin="round"/>
</svg>
