<svg width="17" height="24" viewBox="0 0 17 24" fill="none" xmlns="http://www.w3.org/2000/svg">
<path d="M11.9175 20.6746C14.1838 18.6847 14.1685 13.0238 12.7805 9.97689C11.7629 7.7439 9.43036 6.76277 7.15899 7.50423C6.2569 7.79908 5.37518 8.27845 4.7534 9.05784L4.74832 19.1347L5.1985 19.9038C5.03541 20.0624 4.65827 20.4883 4.58522 20.7228C4.06027 22.4213 2.77084 23.5438 0.913986 23.6869C0.990435 23.0989 1.27924 22.4368 1.29623 21.9074L1.30982 1.74673C1.09407 1.04321 0.691435 0.705246 0 0.0465573L4.72964 0L4.76701 8.00428C6.32995 7.18867 7.76718 6.48171 9.38789 6.63689C14.6815 7.14729 17.7938 12.3099 16.8238 17.2621C16.4076 19.3899 15.5055 21.2056 13.8831 22.6092C13.1407 23.2524 12.2386 23.5576 11.2991 23.8214C10.3851 24.0784 9.55437 24.0904 8.6183 23.6421C7.15219 22.942 5.73874 21.6522 5.16283 19.9555C7.08934 21.8781 9.82959 22.5041 11.9141 20.6728L11.9175 20.6746Z" fill="#EAB308"/>
</svg>
