<svg width="16" height="16" viewBox="0 0 16 16" fill="none" xmlns="http://www.w3.org/2000/svg">
<path d="M11.0737 11.7731L10.3333 14.6667L12 14L13.6667 14.6667L13 11.7325M14 10C14 11.1046 13.1046 12 12 12C10.8954 12 10 11.1046 10 10C10 8.8954 10.8954 8 12 8C13.1046 8 14 8.8954 14 10Z" stroke="#EAB308" stroke-linecap="round" stroke-linejoin="round"/>
<path d="M13.3333 6.66658C13.3333 4.15243 13.3333 2.89535 12.5522 2.1143C11.7712 1.33325 10.5141 1.33325 7.99995 1.33325H7.33335C4.81922 1.33325 3.56215 1.33325 2.7811 2.11429C2.00005 2.89533 2.00005 4.1524 2.00002 6.66654L2 9.33318C1.99998 11.8474 1.99997 13.1045 2.78101 13.8855C3.56207 14.6666 4.81915 14.6666 7.33335 14.6666H8.66662" stroke="#EAB308" stroke-linecap="round" stroke-linejoin="round"/>
<path d="M5 4.66675H10.3333M5 8.00008H8" stroke="#EAB308" stroke-linecap="round" stroke-linejoin="round"/>
</svg>
