<svg width="16" height="16" viewBox="0 0 16 16" fill="none" xmlns="http://www.w3.org/2000/svg">
<path d="M8.10573 7.24659C8.03906 7.23992 7.95906 7.23992 7.88573 7.24659C6.29906 7.19325 5.03906 5.89325 5.03906 4.29325C5.03906 2.65992 6.35906 1.33325 7.99906 1.33325C9.6324 1.33325 10.9591 2.65992 10.9591 4.29325C10.9524 5.89325 9.6924 7.19325 8.10573 7.24659Z" stroke="#EAB308" stroke-linecap="round" stroke-linejoin="round"/>
<path d="M4.7725 9.70675C3.15917 10.7867 3.15917 12.5467 4.7725 13.6201C6.60583 14.8467 9.6125 14.8467 11.4458 13.6201C13.0592 12.5401 13.0592 10.7801 11.4458 9.70675C9.61917 8.48675 6.6125 8.48675 4.7725 9.70675Z" stroke="#EAB308" stroke-linecap="round" stroke-linejoin="round"/>
</svg>
