<svg width="24" height="24" viewBox="0 0 24 24" fill="none" xmlns="http://www.w3.org/2000/svg">
<path d="M3 10.9871V15.4925C3 18.3243 3 19.7403 3.87868 20.62C4.75736 21.4998 6.17157 21.4998 9 21.4998H15C17.8284 21.4998 19.2426 21.4998 20.1213 20.62C21 19.7403 21 18.3243 21 15.4925V10.9871" stroke="#EAB308" stroke-width="1.5" stroke-linecap="round"/>
<path d="M15 16.9768C14.3159 17.584 13.2268 17.9768 12 17.9768C10.7732 17.9768 9.68409 17.584 9 16.9768" stroke="#EAB308" stroke-width="1.5" stroke-linecap="round"/>
<path d="M17.7956 2.50294L6.14983 2.53202C4.41166 2.44248 3.966 3.78259 3.966 4.43768C3.966 5.02359 3.89055 5.87774 2.82524 7.4831C1.75993 9.08846 1.83998 9.56536 2.44071 10.6767C2.93928 11.5991 4.20741 11.9594 4.86862 12.02C6.96883 12.0678 7.99066 10.2517 7.99066 8.97523C9.03251 12.1825 11.9955 12.1825 13.3158 11.8157C14.6385 11.4483 15.7717 10.1331 16.039 8.97523C16.195 10.4142 16.6681 11.2538 18.0662 11.8308C19.5144 12.4284 20.7599 11.515 21.3847 10.9294C22.0096 10.3439 22.4106 9.04401 21.2967 7.6153C20.5285 6.63001 20.2084 5.7018 20.1032 4.73977C20.0423 4.18234 19.9887 3.58336 19.5971 3.20219C19.0247 2.64515 18.2035 2.47613 17.7956 2.50294Z" stroke="#EAB308" stroke-width="1.5" stroke-linecap="round"/>
</svg>
