<svg width="300" height="69" viewBox="0 0 300 69" fill="none" xmlns="http://www.w3.org/2000/svg">
<path d="M126.401 37.2681C124.872 31.1362 123.677 28.3769 118.197 26.2657C116.165 25.4817 114.093 25.9416 112.092 26.8001C108.964 28.1403 106.897 31.7888 108.64 35.0125C109.954 37.4433 112.652 38.7442 115.017 39.8874L123.628 44.0527C127.11 45.739 130.369 48.3275 132.09 51.665C134.723 56.7677 133.028 62.3784 128.03 65.1421C117.409 71.0156 101.575 68.8607 100.226 60.8542C99.784 58.2393 101.759 55.6464 103.77 54.4375L104.803 53.8156C105.101 53.636 105.552 54.9062 105.587 55.169C105.513 60.6746 108.912 65.3743 114.15 66.5875C117.33 66.6707 120.265 66.513 122.853 64.5464C123.808 63.8194 125.039 61.4279 124.907 60.2366C124.408 55.7209 121.767 53.7586 117.838 51.6169L108.141 46.3346C106.783 45.5944 105.241 44.114 104.111 43.0015C100.607 39.5545 99.7489 34.0051 102.705 30.1464C105.106 27.0191 108.596 25.3722 112.376 24.7415L118.267 23.756C114.781 18.027 115.525 10.8308 120.409 6.1355C126.992 -0.193526 137.868 -1.33669 146.487 1.38325C151.441 2.94689 155.181 6.65233 155.282 12.0178L155.519 24.7765L162.719 24.9298L163.863 25.1401C164.143 25.1926 163.324 26.2263 163 26.2351L155.471 26.419V59.1416C155.471 62.12 158.155 64.6297 160.078 65.694C163.271 67.4591 165.825 66.294 169.377 65.2516C166.14 68.83 160.928 68.8957 156.719 67.5774C149.155 65.2078 145.962 58.2831 146.413 50.7628L146.597 26.8833C143.513 25.3328 139.948 27.5359 139.563 25.1401L143.356 24.3035C148.371 23.1954 152.742 19.6651 153.666 14.5187C154.183 11.6411 153.465 8.6233 151.086 6.9633C144.963 2.6841 134.456 2.95565 129.76 8.50504C126.23 12.6748 125.385 16.7131 126.291 22.1836C127.268 28.0527 133.304 30.3697 130.89 34.7059C130.133 36.0637 128.394 37.3382 126.405 37.2594L126.401 37.2681Z" fill="#291B11"/>
<path d="M278.087 68.0898C271.32 69.4476 265.009 65.2998 261.662 59.7723C258.846 55.1208 258.04 50.1189 258.312 44.6133C258.754 35.5643 264.912 27.4658 273.536 24.9036C278.88 23.3136 284.044 24.0714 288.63 27.2731C290.057 26.2088 289.532 24.6977 289.514 23.1997L289.396 12.6966C289.611 10.2877 288.2 9.24963 285.984 7.51079L298.695 7.41443L298.739 59.4219L299.089 63.1142C299.22 64.4983 299.571 66.0531 300 67.4941C295.042 68.0285 290.903 63.6923 289.821 59.2817C289.519 59.1284 288.529 59.4613 288.31 59.7679C285.866 63.2412 282.761 67.1481 278.087 68.0854V68.0898ZM278.468 62.4879C282.993 62.6762 288.108 59.6935 289.466 55.734L289.396 30.269C287.938 28.0878 285.213 27.1286 282.761 26.3665C275.056 23.9706 268.272 30.6238 267.317 38.3587L266.642 43.8162C266.41 52.6768 268.824 62.0937 278.477 62.4922L278.468 62.4879Z" fill="#291B11"/>
<path d="M30.7253 59.8993C36.5682 54.8449 36.5287 40.4655 32.9503 32.7262C30.3267 27.0541 24.3131 24.5619 18.4571 26.4453C16.1313 27.1943 13.8581 28.4119 12.2551 30.3916L12.242 55.9881L13.4026 57.9415C12.9821 58.3445 12.0098 59.4263 11.8215 60.022C10.4681 64.3362 7.14369 67.1876 2.35641 67.5511C2.55351 66.0575 3.2981 64.3756 3.3419 63.031L3.37695 11.8207C2.82069 10.0337 1.78264 9.17519 0 7.50205L12.1938 7.38379L12.2902 27.7155C16.3197 25.6438 20.0251 23.848 24.2036 24.2422C37.8515 25.5387 45.8756 38.6522 43.3746 51.2314C42.3015 56.6363 39.9757 61.2484 35.7929 64.8136C33.8789 66.4474 31.5531 67.2226 29.131 67.8927C26.7746 68.5454 24.6328 68.576 22.2195 67.4372C18.4396 65.659 14.7955 62.3828 13.3107 58.0729C18.2775 62.9565 25.3424 64.5465 30.7166 59.895L30.7253 59.8993Z" fill="#291B11"/>
<path d="M63.8465 53.9733C66.2336 60.9199 73.3597 65.7422 80.718 64.0822C84.8571 63.1492 87.5376 59.9168 90.1656 56.7239C90.7612 57.3108 90.6693 58.3707 90.113 59.1022C85.1286 65.6414 77.179 69.5527 68.9754 68.0986C64.1443 67.2445 59.5848 64.9056 56.9481 60.806C53.3434 55.204 52.4718 48.3538 53.6149 42.0248C55.9713 28.9901 67.3592 22.1661 79.8157 24.5751C87.8179 26.1212 91.5233 32.1173 90.4459 40.2728L62.8128 40.3297C61.6171 42.7562 62.0419 47.1712 62.7997 50.0357L63.8421 53.9733H63.8465ZM81.7035 38.9544C81.905 35.1526 81.6597 32.3232 80.3632 29.5507C78.5061 25.8277 74.5773 24.9123 70.907 26.8789C66.492 29.2397 63.6275 33.7992 62.896 39.0026L81.7035 38.9544Z" fill="#291B11"/>
<path d="M189.179 61.9929C189.161 64.7873 190.83 65.9962 193.283 67.4372L176.179 67.4898C177.97 65.9261 180.296 65.0896 180.296 62.4791L180.335 12.1097C179.429 9.95042 178.627 9.11385 176.516 7.50203L189.192 7.42319L189.257 45.4367L189.271 48.7305L189.179 61.9973V61.9929Z" fill="#291B11"/>
<path d="M233.569 67.4547C236.57 65.8079 238.133 64.3975 237.752 61.244L238.107 57.3589L238.085 33.8211L237.673 30.3172C237.875 27.1023 235.733 26.5942 232.869 25.0481L246.998 24.9254L247.025 62.5054C247.025 65.0501 248.777 66.0006 251.129 67.4284L233.569 67.4503V67.4547Z" fill="#291B11"/>
<path d="M225.97 67.2883C221.8 67.5423 217.495 67.7526 213.264 67.2883C209.506 66.8766 206.677 63.653 204.215 61.244L195.954 53.1674C193.865 51.1263 191.509 49.4575 189.809 46.8909L201.622 34.8329L207.798 28.2279C208.42 27.5622 207.736 25.9723 206.856 25.0043L219.142 25.1926C214.149 26.3621 210.64 28.4382 207.399 31.8589L196.844 43.0146L209.686 55.6026L216.685 62.2295C219.269 64.6691 222.243 65.7378 225.975 67.2883H225.97Z" fill="#291B11"/>
<path d="M247.734 10.0468C249.166 12.4338 248.023 15.1669 246.127 16.8839C244.23 18.6008 241.396 18.6271 239.106 17.2211C237.113 15.9947 235.768 12.8324 236.776 10.5636C237.783 8.2948 239.824 6.74429 241.944 6.55596C244.248 6.3501 246.381 7.79548 247.734 10.0512V10.0468Z" fill="#291B11"/>
</svg>
