<svg width="16" height="16" viewBox="0 0 16 16" fill="none" xmlns="http://www.w3.org/2000/svg">
<g clip-path="url(#clip0_216_14975)">
<path d="M2.00005 7.32471V10.3283C2.00005 12.2162 2.00005 13.1602 2.58583 13.7466C3.17162 14.3332 4.11443 14.3332 6.00005 14.3332H10.0001C11.8857 14.3332 12.8285 14.3332 13.4143 13.7466C14.0001 13.1602 14.0001 12.2162 14.0001 10.3283V7.32471" stroke="#EAB308" stroke-width="1.5"/>
<path d="M10.0001 11.3179C9.54401 11.7227 8.81794 11.9845 8.00007 11.9845C7.18221 11.9845 6.45611 11.7227 6.00005 11.3179" stroke="#EAB308" stroke-width="1.5"/>
<path d="M11.8638 1.66879L4.09993 1.68818C2.94115 1.62848 2.64404 2.52189 2.64404 2.95861C2.64404 3.34922 2.59374 3.91865 1.88353 4.98889C1.17333 6.05913 1.22669 6.37707 1.62718 7.11796C1.95956 7.73289 2.80498 7.9731 3.24579 8.0135C4.64593 8.04536 5.32715 6.83463 5.32715 5.98365C6.02171 8.12183 7.99707 8.12183 8.87727 7.87729C9.75907 7.63236 10.5145 6.75556 10.6927 5.98365C10.7967 6.94296 11.1121 7.5027 12.0442 7.88736C13.0097 8.28576 13.84 7.67683 14.2565 7.28643C14.6731 6.8961 14.9405 6.0295 14.1979 5.07703C13.6857 4.42017 13.4723 3.80136 13.4022 3.16001C13.3616 2.78839 13.3259 2.38907 13.0648 2.13495C12.6832 1.76359 12.1357 1.65091 11.8638 1.66879Z" stroke="#EAB308" stroke-width="1.5"/>
</g>
<defs>
<clipPath id="clip0_216_14975">
<rect width="16" height="16" fill="white"/>
</clipPath>
</defs>
</svg>


